<?xml version="1.0" encoding="UTF-8" standalone="no" ?>
<!DOCTYPE svg PUBLIC "-//W3C//DTD SVG 1.1//EN" "http://www.w3.org/Graphics/SVG/1.1/DTD/svg11.dtd">
<svg xmlns="http://www.w3.org/2000/svg" xmlns:xlink="http://www.w3.org/1999/xlink" version="1.1" width="348.6439" height="340" viewBox="0 0 348.6439 340" xml:space="preserve">
<desc>Created with Fabric.js 4.6.0</desc>
<defs>
</defs>
<g transform="matrix(1.15 0 0 1.15 174.28 179.39)" id="Wq_Ul9rEx85zREouzny7Y"  >
<g style="" vector-effect="non-scaling-stroke"   >
		<g transform="matrix(1 0 0 1 20.65 109.47)" id="V-x99dfpqKBe0HjwFpvJu"  >
<path style="stroke: rgb(0,0,0); stroke-width: 3; stroke-dasharray: none; stroke-linecap: butt; stroke-dashoffset: 0; stroke-linejoin: miter; stroke-miterlimit: 4; fill: none; fill-rule: nonzero; opacity: 1;" vector-effect="non-scaling-stroke"  transform=" translate(-179.97, -357.05)" d="M 164.451 360.355 L 195.492 353.754" stroke-linecap="round" />
</g>
		<g transform="matrix(1 0 0 1 21.16 110.34)" id="Xe4OCrY9r7zR_voGVt5m_"  >
<path style="stroke: rgb(0,0,0); stroke-width: 3; stroke-dasharray: none; stroke-linecap: butt; stroke-dashoffset: 0; stroke-linejoin: miter; stroke-miterlimit: 4; fill: none; fill-rule: nonzero; opacity: 1;" vector-effect="non-scaling-stroke"  transform=" translate(-180.48, -357.92)" d="M 195.492 353.754 L 165.468 362.085" stroke-linecap="round" />
</g>
		<g transform="matrix(1 0 0 1 50.78 -4.34)" id="zmLYrACkMNhsCVUkIbbTv"  >
<path style="stroke: rgb(0,0,0); stroke-width: 3; stroke-dasharray: none; stroke-linecap: butt; stroke-dashoffset: 0; stroke-linejoin: miter; stroke-miterlimit: 4; fill: none; fill-rule: nonzero; opacity: 1;" vector-effect="non-scaling-stroke"  transform=" translate(-210.09, -243.24)" d="M 194.573 247.209 C 197.782 241.444 206.578 233.171 216.097 246.201 C 218.386 246.796 223.495 246.51 225.614 240.608" stroke-linecap="round" />
</g>
		<g transform="matrix(1 0 0 1 121.07 -109.09)" id="E2FyGENGpLJHigzxFDST8"  >
<path style="stroke: rgb(116,116,116); stroke-width: 3; stroke-dasharray: none; stroke-linecap: butt; stroke-dashoffset: 0; stroke-linejoin: miter; stroke-miterlimit: 4; fill: rgb(255,255,255); fill-rule: nonzero; opacity: 1;" vector-effect="non-scaling-stroke"  transform=" translate(-280.39, -138.49)" d="M 308.559 110.391 L 252.222 135.348 L 262.435 166.593 L 294.644 163.962 L 308.559 110.391 Z" stroke-linecap="round" />
</g>
		<g transform="matrix(1 0 0 1 121.51 -120.89)" id="sJ9qIgappXdgolzGWV7cp"  >
<path style="stroke: none; stroke-width: 1; stroke-dasharray: none; stroke-linecap: butt; stroke-dashoffset: 0; stroke-linejoin: miter; stroke-miterlimit: 4; fill: rgb(116,116,116); fill-rule: nonzero; opacity: 1;" vector-effect="non-scaling-stroke"  transform=" translate(-280.82, -126.69)" d="M 277.964 143.5 L 252.222 135.347 L 309.424 109.882 L 277.964 143.5 Z" stroke-linecap="round" />
</g>
		<g transform="matrix(1 0 0 1 114.11 -97.93)" id="g-QWX_JHcC5DgZtLv9XCy"  >
<path style="stroke: rgb(116,116,116); stroke-width: 3; stroke-dasharray: none; stroke-linecap: butt; stroke-dashoffset: 0; stroke-linejoin: miter; stroke-miterlimit: 4; fill: none; fill-rule: nonzero; opacity: 1;" vector-effect="non-scaling-stroke"  transform=" translate(-273.43, -149.66)" d="M 252.73 136.213 L 277.964 143.5 L 294.135 163.097" stroke-linecap="round" />
</g>
		<g transform="matrix(1 0 0 1 133.94 -120.64)" id="fIGk_VRg0WiaoHxeyU96N"  >
<path style="stroke: rgb(116,116,116); stroke-width: 3; stroke-dasharray: none; stroke-linecap: butt; stroke-dashoffset: 0; stroke-linejoin: miter; stroke-miterlimit: 4; fill: none; fill-rule: nonzero; opacity: 1;" vector-effect="non-scaling-stroke"  transform=" translate(-293.26, -126.95)" d="M 308.559 110.391 L 277.964 143.5" stroke-linecap="round" />
</g>
		<g transform="matrix(1 0 0 1 91.61 -64.92)" id="5ViFmh_WbYWzXaoMcUvI5"  >
<path style="stroke: rgb(116,116,116); stroke-width: 3; stroke-dasharray: none; stroke-linecap: butt; stroke-dashoffset: 0; stroke-linejoin: miter; stroke-miterlimit: 4; fill: rgb(255,255,255); fill-rule: nonzero; opacity: 1;" vector-effect="non-scaling-stroke"  transform=" translate(-8.54, -8.54)" d="M 0 8.53535 C 0 3.8214099999999993 3.82141 0 8.53535 0 C 13.249289999999998 0 17.0707 3.82141 17.0707 8.53535 C 17.0707 13.249289999999998 13.249289999999998 17.0707 8.53535 17.0707 C 3.8214099999999993 17.0707 0 13.249289999999998 0 8.53535 z" stroke-linecap="round" />
</g>
		<g transform="matrix(1 0 0 1 9.82 -4.05)" id="iZiWDKvzp9LUISr4qR8jj"  >
<path style="stroke: rgb(116,116,116); stroke-width: 3; stroke-dasharray: none; stroke-linecap: butt; stroke-dashoffset: 0; stroke-linejoin: miter; stroke-miterlimit: 4; fill: rgb(255,255,255); fill-rule: nonzero; opacity: 1;" vector-effect="non-scaling-stroke"  transform=" translate(-77.78, -77.78)" d="M 0 77.7792 C 0 34.82293 34.82293 0 77.7792 0 C 120.73547 0 155.5584 34.82293 155.5584 77.7792 C 155.5584 120.73547 120.73547 155.5584 77.7792 155.5584 C 34.82293 155.5584 0 120.73547 0 77.7792 z" stroke-linecap="round" />
</g>
		<g transform="matrix(1 0 0 1 11.18 42.35)" id="IIkWGH4578GX64ieBKJEL"  >
<path style="stroke: rgb(116,116,116); stroke-width: 3; stroke-dasharray: none; stroke-linecap: butt; stroke-dashoffset: 0; stroke-linejoin: miter; stroke-miterlimit: 4; fill: none; fill-rule: nonzero; opacity: 1;" vector-effect="non-scaling-stroke"  transform=" translate(-170.49, -289.94)" d="M 160.189 287.354 L 180.797 285.531 C 178.022 292.35 167.842 300.455 160.189 287.354 Z" stroke-linecap="round" />
</g>
		<g transform="matrix(1 0 0 1 5.89 -32.02)" id="uaW6rly3qJhk24ruNUIfh"  >
<path style="stroke: rgb(116,116,116); stroke-width: 3; stroke-dasharray: none; stroke-linecap: butt; stroke-dashoffset: 0; stroke-linejoin: miter; stroke-miterlimit: 4; fill: none; fill-rule: nonzero; opacity: 1;" vector-effect="non-scaling-stroke"  transform=" translate(-165.21, -215.56)" d="M 100.614 208.14 L 164.05 234.882 L 229.807 196.242" stroke-linecap="round" />
</g>
		<g transform="matrix(1 0 0 1 47.33 5.35)" id="-VEUCxZ4QjxuIwixkj5TH"  >
<path style="stroke: rgb(116,116,116); stroke-width: 3; stroke-dasharray: none; stroke-linecap: butt; stroke-dashoffset: 0; stroke-linejoin: miter; stroke-miterlimit: 4; fill: none; fill-rule: nonzero; opacity: 1;" vector-effect="non-scaling-stroke"  transform=" translate(-206.65, -252.93)" d="M 192.353 257.296 C 194.98 252.261 202.137 245.023 210.774 253.565 M 212.527 255.498 C 215.898 254.262 219.128 249.997 216.902 247.73 M 212.527 255.498 C 211.937 254.78 211.352 254.137 210.774 253.565 M 212.527 255.498 L 210.774 253.565 M 212.527 255.498 C 215.492 259.702 219.379 257.934 220.952 256.524" stroke-linecap="round" />
</g>
		<g transform="matrix(1 0 0 1 -26.58 10.15)" id="FPTQFQVwaFS8gznPbrUnR"  >
<path style="stroke: rgb(116,116,116); stroke-width: 3; stroke-dasharray: none; stroke-linecap: butt; stroke-dashoffset: 0; stroke-linejoin: miter; stroke-miterlimit: 4; fill: none; fill-rule: nonzero; opacity: 1;" vector-effect="non-scaling-stroke"  transform=" translate(-132.74, -257.73)" d="M 146.946 262.3 C 144.279 257.334 137.088 250.155 128.609 258.425 M 126.89 260.299 C 123.528 259.047 120.271 254.829 122.456 252.633 M 126.89 260.299 C 127.468 259.601 128.041 258.979 128.609 258.425 M 126.89 260.299 L 128.609 258.425 M 126.89 260.299 C 123.994 264.384 120.113 262.605 118.535 261.204" stroke-linecap="round" />
</g>
		<g transform="matrix(1 0 0 1 66.71 35.13)" id="jJP8EVek2kYyJ-yERR9GU"  >
<path style="stroke: rgb(116,116,116); stroke-width: 3; stroke-dasharray: none; stroke-linecap: butt; stroke-dashoffset: 0; stroke-linejoin: miter; stroke-miterlimit: 4; fill: rgb(116,116,116); fill-rule: nonzero; opacity: 1;" vector-effect="non-scaling-stroke"  transform=" translate(-226.02, -282.71)" d="M 232.551 264.709 C 235.661 265.517 238.549 267.878 241.248 272.182 C 240.709 272.984 240.074 274.071 239.388 275.272 C 239.011 275.933 238.61 276.646 238.185 277.4 C 237.431 278.738 236.602 280.209 235.701 281.761 C 232.883 286.616 229.505 292.005 226.066 295.711 C 224.28 297.636 222.899 299.031 221.734 299.932 C 220.555 300.843 219.825 301.064 219.315 301.034 C 218.829 301.004 218.15 300.719 217.138 299.61 C 216.128 298.505 214.967 296.782 213.501 294.285 C 208.024 284.965 211.139 272.969 220.46 267.492 C 225.301 264.647 229.243 263.85 232.551 264.709 Z" stroke-linecap="round" />
</g>
		<g transform="matrix(1 0 0 1 133.33 -109.9)" id="-HT0eeZlwW0J_jDvVvTK4"  >
<path style="stroke: none; stroke-width: 1; stroke-dasharray: none; stroke-linecap: butt; stroke-dashoffset: 0; stroke-linejoin: miter; stroke-miterlimit: 4; fill: rgb(116,116,116); fill-rule: nonzero; opacity: 1;" vector-effect="non-scaling-stroke"  transform=" translate(-292.65, -137.69)" d="M 294.135 163.097 L 277.964 143.5 L 307.337 112.273 L 294.135 163.097 Z" stroke-linecap="round" />
</g>
		<g transform="matrix(1 0 0 1 -120.98 -80.27)" id="Vc5vFdDimVmHKK1lipafE"  >
<path style="stroke: rgb(116,116,116); stroke-width: 3; stroke-dasharray: none; stroke-linecap: butt; stroke-dashoffset: 0; stroke-linejoin: miter; stroke-miterlimit: 4; fill: rgb(255,255,255); fill-rule: nonzero; opacity: 1;" vector-effect="non-scaling-stroke"  transform=" translate(-38.33, -167.31)" d="M 10.0766 139.228 L 35.4178 195.393 L 66.593 184.967 L 63.742 152.777 L 10.0766 139.228 Z" stroke-linecap="round" />
</g>
		<g transform="matrix(1 0 0 1 -132.84 -80.7)" id="GvJ8jxttZx0x_ltUU1ney"  >
<path style="stroke: none; stroke-width: 1; stroke-dasharray: none; stroke-linecap: butt; stroke-dashoffset: 0; stroke-linejoin: miter; stroke-miterlimit: 4; fill: rgb(116,116,116); fill-rule: nonzero; opacity: 1;" vector-effect="non-scaling-stroke"  transform=" translate(-26.48, -166.88)" d="M 43.3946 169.596 L 35.4178 195.393 L 9.56236 138.366 L 43.3946 169.596 Z" stroke-linecap="round" />
</g>
		<g transform="matrix(1 0 0 1 -109.74 -73.5)" id="1ZJoORzIcGcOVKu-3kb4E"  >
<path style="stroke: rgb(116,116,116); stroke-width: 3; stroke-dasharray: none; stroke-linecap: butt; stroke-dashoffset: 0; stroke-linejoin: miter; stroke-miterlimit: 4; fill: none; fill-rule: nonzero; opacity: 1;" vector-effect="non-scaling-stroke"  transform=" translate(-49.58, -174.08)" d="M 36.2796 194.879 L 43.3946 169.596 L 62.8803 153.291" stroke-linecap="round" />
</g>
		<g transform="matrix(1 0 0 1 -132.58 -93.17)" id="jGoNn3SKtCPEcHOvNFQd2"  >
<path style="stroke: rgb(116,116,116); stroke-width: 3; stroke-dasharray: none; stroke-linecap: butt; stroke-dashoffset: 0; stroke-linejoin: miter; stroke-miterlimit: 4; fill: none; fill-rule: nonzero; opacity: 1;" vector-effect="non-scaling-stroke"  transform=" translate(-26.74, -154.41)" d="M 10.0767 139.228 L 43.3946 169.596" stroke-linecap="round" />
</g>
		<g transform="matrix(1 0 0 1 -76.57 -51.22)" id="GSFiYZb3JEwKqMDve24cS"  >
<path style="stroke: rgb(116,116,116); stroke-width: 3; stroke-dasharray: none; stroke-linecap: butt; stroke-dashoffset: 0; stroke-linejoin: miter; stroke-miterlimit: 4; fill: rgb(255,255,255); fill-rule: nonzero; opacity: 1;" vector-effect="non-scaling-stroke"  transform=" translate(-8.54, -8.54)" d="M 0 8.53535 C 0 3.8214099999999993 3.82141 0 8.53535 0 C 13.249289999999998 0 17.0707 3.82141 17.0707 8.53535 C 17.0707 13.249289999999998 13.249289999999998 17.0707 8.53535 17.0707 C 3.8214099999999993 17.0707 0 13.249289999999998 0 8.53535 z" stroke-linecap="round" />
</g>
		<g transform="matrix(1 0 0 1 -121.89 -92.56)" id="ZWDKr-aklkdfzGyfAIkmA"  >
<path style="stroke: none; stroke-width: 1; stroke-dasharray: none; stroke-linecap: butt; stroke-dashoffset: 0; stroke-linejoin: miter; stroke-miterlimit: 4; fill: rgb(116,116,116); fill-rule: nonzero; opacity: 1;" vector-effect="non-scaling-stroke"  transform=" translate(-37.42, -155.02)" d="M 62.8804 153.291 L 43.3946 169.596 L 11.9671 140.437 L 62.8804 153.291 Z" stroke-linecap="round" />
</g>
		<g transform="matrix(1 0 0 1 -120.98 -80.27)" id="ZkfJuREwxyEeyfj_HB-xM"  >
<path style="stroke: rgb(116,116,116); stroke-width: 3; stroke-dasharray: none; stroke-linecap: butt; stroke-dashoffset: 0; stroke-linejoin: miter; stroke-miterlimit: 4; fill: rgb(255,255,255); fill-rule: nonzero; opacity: 1;" vector-effect="non-scaling-stroke"  transform=" translate(-38.33, -167.31)" d="M 10.0766 139.228 L 35.4178 195.393 L 66.593 184.967 L 63.742 152.777 L 10.0766 139.228 Z" stroke-linecap="round" />
</g>
		<g transform="matrix(1 0 0 1 -132.84 -80.7)" id="MREmXTlHpvzJQngYEcMNT"  >
<path style="stroke: none; stroke-width: 1; stroke-dasharray: none; stroke-linecap: butt; stroke-dashoffset: 0; stroke-linejoin: miter; stroke-miterlimit: 4; fill: rgb(116,116,116); fill-rule: nonzero; opacity: 1;" vector-effect="non-scaling-stroke"  transform=" translate(-26.48, -166.88)" d="M 43.3946 169.596 L 35.4179 195.393 L 9.56242 138.366 L 43.3946 169.596 Z" stroke-linecap="round" />
</g>
		<g transform="matrix(1 0 0 1 -121.89 -92.56)" id="VPAImAekH4OkIiDZ-sITN"  >
<path style="stroke: none; stroke-width: 1; stroke-dasharray: none; stroke-linecap: butt; stroke-dashoffset: 0; stroke-linejoin: miter; stroke-miterlimit: 4; fill: rgb(116,116,116); fill-rule: nonzero; opacity: 1;" vector-effect="non-scaling-stroke"  transform=" translate(-37.42, -155.02)" d="M 62.8803 153.291 L 43.3946 169.596 L 11.967 140.437 L 62.8803 153.291 Z" stroke-linecap="round" />
</g>
		<g transform="matrix(1 0 0 1 -49.41 31.72)" id="iPIJ1fWS-Z64fmWsZqQak"  >
<path style="stroke: rgb(116,116,116); stroke-width: 3; stroke-dasharray: none; stroke-linecap: butt; stroke-dashoffset: 0; stroke-linejoin: miter; stroke-miterlimit: 4; fill: rgb(116,116,116); fill-rule: nonzero; opacity: 1;" vector-effect="non-scaling-stroke"  transform=" translate(-109.91, -279.3)" d="M 104.708 260.925 C 101.73 261.594 98.8075 263.856 95.6801 268.038 C 96.1364 268.831 96.6707 269.88 97.253 271.048 C 97.5624 271.669 97.891 272.336 98.2386 273.041 C 98.893 274.369 99.6148 275.834 100.403 277.387 C 102.815 282.139 105.745 287.508 108.853 291.544 C 109.108 291.876 109.353 292.195 109.589 292.502 C 110.852 294.148 111.831 295.424 112.689 296.364 C 113.746 297.522 114.335 297.834 114.682 297.883 C 114.912 297.915 115.399 297.873 116.421 296.91 C 117.431 295.959 118.683 294.375 120.397 291.972 C 126.775 283.029 124.775 270.707 115.989 264.441 C 111.415 261.179 107.821 260.226 104.708 260.925 Z" stroke-linecap="round" />
</g>
		<g transform="matrix(1 0 0 1 20.97 109.05)" id="WD4M6_myFcQFFci3P3gNC"  >
<path style="stroke: rgb(116,116,116); stroke-width: 3; stroke-dasharray: none; stroke-linecap: butt; stroke-dashoffset: 0; stroke-linejoin: miter; stroke-miterlimit: 4; fill: rgb(255,255,255); fill-rule: nonzero; opacity: 1;" vector-effect="non-scaling-stroke"  transform=" translate(-180.29, -356.63)" d="M 195.49 353.313 C 197.22 361.229 196.948 368.721 195.185 374.413 C 193.406 380.153 190.238 383.741 186.395 384.581 C 182.551 385.42 178.175 383.481 174.164 379.005 C 170.188 374.568 166.817 367.872 165.087 359.955 C 163.357 352.039 163.629 344.547 165.392 338.855 C 167.17 333.115 170.339 329.527 174.182 328.687 C 178.026 327.847 182.402 329.787 186.413 334.262 C 190.389 338.7 193.76 345.396 195.49 353.313 Z" stroke-linecap="round" />
</g>
		<g transform="matrix(1 0 0 1 58.15 75.08)" id="PQdz12lSJUbrW0hdejUaw"  >
<path style="stroke: rgb(116,116,116); stroke-width: 3; stroke-dasharray: none; stroke-linecap: butt; stroke-dashoffset: 0; stroke-linejoin: miter; stroke-miterlimit: 4; fill: rgb(255,255,255); fill-rule: nonzero; opacity: 1;" vector-effect="non-scaling-stroke"  transform=" translate(-217.46, -322.67)" d="M 213.888 316.859 C 217.161 314.844 220.525 313.813 223.273 313.713 C 226.073 313.611 227.89 314.46 228.687 315.755 C 229.484 317.049 229.425 319.054 228.074 321.508 C 226.747 323.917 224.312 326.457 221.039 328.472 C 217.766 330.488 214.402 331.519 211.654 331.619 C 208.854 331.721 207.037 330.871 206.24 329.577 C 205.443 328.282 205.502 326.277 206.854 323.823 C 208.18 321.414 210.615 318.874 213.888 316.859 Z" stroke-linecap="round" />
</g>
		<g transform="matrix(1 0 0 1 21.49 111.89)" id="1q2Dp-Su6pKBVAGItQhom"  >
<path style="stroke: rgb(116,116,116); stroke-width: 3; stroke-dasharray: none; stroke-linecap: butt; stroke-dashoffset: 0; stroke-linejoin: miter; stroke-miterlimit: 4; fill: none; fill-rule: nonzero; opacity: 1;" vector-effect="non-scaling-stroke"  transform=" translate(-180.81, -359.47)" d="M 165.468 362.085 L 196.152 356.859" stroke-linecap="round" />
</g>
		<g transform="matrix(1 0 0 1 39.67 89.01)" id="z1UW_S_3H0_eiJt2suE2C"  >
<path style="stroke: rgb(116,116,116); stroke-width: 3; stroke-dasharray: none; stroke-linecap: butt; stroke-dashoffset: 0; stroke-linejoin: miter; stroke-miterlimit: 4; fill: none; fill-rule: nonzero; opacity: 1;" vector-effect="non-scaling-stroke"  transform=" translate(-198.98, -336.6)" d="M 201.41 339.142 C 201.339 339.209 201.039 339.393 200.288 339.186 C 199.571 338.988 198.69 338.477 197.89 337.637 C 197.089 336.797 196.621 335.892 196.458 335.166 C 196.288 334.406 196.487 334.115 196.557 334.048 C 196.628 333.981 196.928 333.797 197.679 334.004 C 198.396 334.202 199.277 334.713 200.077 335.553 C 200.878 336.393 201.346 337.298 201.508 338.024 C 201.679 338.784 201.48 339.075 201.41 339.142 Z" stroke-linecap="round" />
</g>
		<g transform="matrix(1 0 0 1 43.08 85.72)" id="8bagbHmeJrltCVTZitkIX"  >
<path style="stroke: rgb(116,116,116); stroke-width: 3; stroke-dasharray: none; stroke-linecap: butt; stroke-dashoffset: 0; stroke-linejoin: miter; stroke-miterlimit: 4; fill: none; fill-rule: nonzero; opacity: 1;" vector-effect="non-scaling-stroke"  transform=" translate(-202.4, -333.3)" d="M 204.827 335.85 C 204.757 335.918 204.457 336.102 203.706 335.895 C 202.989 335.697 202.108 335.186 201.307 334.345 C 200.507 333.505 200.039 332.6 199.876 331.874 C 199.706 331.115 199.904 330.824 199.975 330.757 C 200.045 330.689 200.346 330.505 201.096 330.712 C 201.813 330.91 202.694 331.421 203.495 332.262 C 204.295 333.102 204.763 334.007 204.926 334.733 C 205.097 335.492 204.898 335.783 204.827 335.85 Z" stroke-linecap="round" />
</g>
		<g transform="matrix(1 0 0 1 -23.07 87.22)" id="wlJeVEdHUj5FuvWnfEhQr"  >
<path style="stroke: rgb(116,116,116); stroke-width: 3; stroke-dasharray: none; stroke-linecap: butt; stroke-dashoffset: 0; stroke-linejoin: miter; stroke-miterlimit: 4; fill: rgb(255,255,255); fill-rule: nonzero; opacity: 1;" vector-effect="non-scaling-stroke"  transform=" translate(-136.24, -334.8)" d="M 133.004 340.803 C 129.622 338.976 127.047 336.578 125.586 334.248 C 124.098 331.875 123.925 329.876 124.648 328.538 C 125.37 327.201 127.137 326.25 129.937 326.193 C 132.687 326.137 136.104 326.977 139.486 328.803 C 142.867 330.63 145.443 333.028 146.903 335.358 C 148.391 337.731 148.564 339.73 147.842 341.068 C 147.119 342.405 145.353 343.356 142.552 343.413 C 139.803 343.469 136.385 342.629 133.004 340.803 Z" stroke-linecap="round" />
</g>
		<g transform="matrix(1 0 0 1 -1.77 96.26)" id="H6mOKkBF82ipyj7_i3KGe"  >
<path style="stroke: rgb(116,116,116); stroke-width: 3; stroke-dasharray: none; stroke-linecap: butt; stroke-dashoffset: 0; stroke-linejoin: miter; stroke-miterlimit: 4; fill: none; fill-rule: nonzero; opacity: 1;" vector-effect="non-scaling-stroke"  transform=" translate(-157.55, -343.84)" d="M 158.541 340.468 C 158.634 340.495 158.944 340.663 159.14 341.417 C 159.327 342.137 159.325 343.156 158.997 344.269 C 158.67 345.382 158.12 346.24 157.573 346.744 C 157 347.271 156.649 347.245 156.555 347.217 C 156.462 347.19 156.152 347.022 155.956 346.268 C 155.769 345.548 155.771 344.53 156.099 343.416 C 156.426 342.303 156.976 341.445 157.523 340.941 C 158.096 340.414 158.447 340.44 158.541 340.468 Z" stroke-linecap="round" />
</g>
		<g transform="matrix(1 0 0 1 -6.33 94.95)" id="RWb0fXITGeKnbaCP6_zcV"  >
<path style="stroke: rgb(116,116,116); stroke-width: 3; stroke-dasharray: none; stroke-linecap: butt; stroke-dashoffset: 0; stroke-linejoin: miter; stroke-miterlimit: 4; fill: none; fill-rule: nonzero; opacity: 1;" vector-effect="non-scaling-stroke"  transform=" translate(-152.99, -342.53)" d="M 153.981 339.154 C 154.075 339.181 154.384 339.349 154.58 340.103 C 154.767 340.823 154.765 341.841 154.438 342.955 C 154.11 344.068 153.561 344.926 153.013 345.43 C 152.441 345.957 152.089 345.931 151.996 345.903 C 151.902 345.876 151.593 345.708 151.397 344.954 C 151.21 344.234 151.212 343.215 151.539 342.102 C 151.867 340.989 152.416 340.131 152.964 339.627 C 153.536 339.1 153.888 339.126 153.981 339.154 Z" stroke-linecap="round" />
</g>
		<g transform="matrix(1 0 0 1 6.76 -47.82)" id="EDGMrFs1fufbQKE6SBMgh"  >
<path style="stroke: none; stroke-width: 1; stroke-dasharray: none; stroke-linecap: butt; stroke-dashoffset: 0; stroke-linejoin: miter; stroke-miterlimit: 4; fill: rgb(116,116,116); fill-rule: nonzero; opacity: 1;" vector-effect="non-scaling-stroke"  transform=" translate(-166.07, -199.76)" d="M 163.542 234.017 L 100.105 207.275 C 118.437 175.086 149.649 166.135 162.963 165.683 C 196.545 163.408 221.892 183.433 232.045 196.09 L 163.542 234.017 Z" stroke-linecap="round" />
</g>
		<g transform="matrix(1 0 0 1 20.93 123.54)" id="WNnNrSFsteWURVLi194IH"  >
<path style="stroke: none; stroke-width: 1; stroke-dasharray: none; stroke-linecap: butt; stroke-dashoffset: 0; stroke-linejoin: miter; stroke-miterlimit: 4; fill: rgb(116,116,116); fill-rule: nonzero; opacity: 1;" vector-effect="non-scaling-stroke"  transform=" translate(-180.25, -371.12)" d="M 196.152 356.859 L 164.094 361.728 C 171.208 381.759 182.519 385.821 187.285 385.348 C 196.284 380.06 196.945 364.152 196.152 356.859 Z" stroke-linecap="round" />
</g>
</g>
</g>
</svg>